PathFileType	4	(X/Y/Z)	C:/Users/beibeiliu/ov580/test_trc/User3\out6_training_dense_right.trc
DataRate	CameraRate	NumFrames	NumMarkers	Units	OrigDataRate	OrigDataStartFrame	OrigNumFrames
120	120	10	19	mm	120	438	500
Frame#	Time	ThumbCMC			ThumbMCP			ThumbIP			ThumbTip			IndexMCP			IndexPIP			IndexTip			MiddleMCP			MiddlePIP			MiddleTip			RingMCP			RingPIP			RingTip			PinkyMCP			PinkyPIP			PinkyTip			BackHand1			BackHand2			BackHand3	
		X0	Y0	Z0	X1	Y1	Z1	X2	Y2	Z2	X3	Y3	Z3	X4	Y4	Z4	X5	Y5	Z5	X6	Y6	Z6	X7	Y7	Z7	X8	Y8	Z8	X9	Y9	Z9	X10	Y10	Z10	X11	Y11	Z11	X12	Y12	Z12	X13	Y13	Z13	X14	Y14	Z14	X15	Y15	Z15	X16	Y16	Z16	X17	Y17	Z17	X18	Y18	Z18	
437	3.64167	80.7942	7.87407	23.7963	76.0287	-9.65928	1.73023	76.1798	-25.9712	-21.3812	78.1068	-41.8372	-41.3991	99.3572	-16.4244	-48.4314	101.214	-33.1204	-72.0368	106.106	-45.2622	-88.8269	116.474	-10.5049	-57.5498	116.579	-29.4024	-79.1917	118.857	-43.9843	-102.513	133.672	-3.14321	-53.0642	137.316	-13.4279	-67.7612	139.745	-26.6376	-89.985	150.84	12.7293	-35.5868	151.365	3.89561	-51.978	149.219	-6.8509	-76.5116	126.492	32.9021	-13.1822	121.253	50.8756	11.4982	94.4063	29.7643	0.306125	
438	3.65	77.7799	11.7398	28.0826	68.5368	-7.71747	8.04239	66.2967	-26.9627	-16.969	71.8845	-41.8933	-32.5818	88.7446	-23.6902	-44.4559	93.0706	-40.7767	-61.1173	93.5089	-59.5295	-81.7402	110.269	-19.9974	-50.0262	108.017	-38.8284	-68.1123	107.233	-58.1206	-92.1774	127.786	-11.6816	-44.528	127.949	-29.2254	-63.9486	127.359	-43.4994	-80.1193	143.659	-0.294948	-30.3862	145.63	-11.9989	-49.2197	144.68	-22.5714	-68.4536	122.514	26.1386	-12.02	122.56	46.5414	10.4024	90.741	28.1014	2.83123	
439	3.65833	70.2642	17.4925	30.8296	61.7694	-2.09464	9.60175	56.3794	-22.9826	-11.7246	55.6582	-40.4124	-25.8015	79.7239	-25.1249	-36.9151	76.484	-45.5275	-54.2732	82.1974	-62.5084	-69.9374	100.928	-25.8188	-44.0066	93.9357	-45.6278	-59.3351	96.0825	-68.486	-82.132	119.277	-22.9424	-39.7288	114.158	-38.2371	-53.4951	116.677	-57.6737	-75.2526	133.014	-11.8779	-24.323	136.369	-25.7984	-43.4848	132.788	-37.8058	-61.8211	119.643	23.362	-6.69047	122.862	46.1636	14.5027	85.1111	28.1416	3.62548	
440	3.66667	65.3442	27.855	33.2996	52.4178	9.66617	15.6462	44.7655	-13.1304	-5.69138	43.364	-32.8418	-19.8282	66.9123	-21.2805	-32.3101	62.6797	-40.3988	-46.6023	64.7918	-63.4829	-63.1019	87.7089	-27.3625	-39.8457	80.4962	-46.0779	-51.7101	77.6757	-72.4615	-74.0516	105.429	-27.9261	-32.7991	103.724	-43.7388	-45.1734	97.8942	-66.6088	-64.6993	125.1	-21.4565	-20.7074	123.922	-37.2881	-35.6409	120.267	-47.6232	-47.5232	117.017	17.518	-4.59875	125.069	40.6973	12.4336	87.9309	32.5762	3.57309	
441	3.675	68.4707	34.8371	28.6329	51.2774	19.709	10.0171	37.7588	-0.888355	-8.48919	34.9414	-20.6803	-19.3913	61.3729	-12.8914	-30.9198	54.3009	-33.4925	-43.7071	46.5428	-53.5416	-58.3409	75.4754	-25.0445	-38.2674	70.1174	-45.9648	-49.8849	56.1163	-66.4043	-66.5594	96.7929	-30.3372	-29.2019	90.9111	-47.8901	-43.4642	84.0872	-66.2237	-55.6652	116.609	-27.8226	-16.2639	112.045	-41.5362	-28.2734	107.563	-57.2096	-44.0813	115.066	14.0587	-3.56822	124.604	34.9226	12.612	90.8162	38.0866	4.20326	
442	3.68333	73.2764	47.3292	29.1217	51.2396	36.2667	8.40471	37.329	17.4987	-7.63262	25.9166	-2.51289	-20.9922	54.6189	-4.99334	-34.1	44.0603	-22.9269	-46.3803	35.0634	-41.5002	-59.9507	70.1029	-16.9735	-35.9393	54.9331	-35.2588	-49.3941	42.0828	-55.4619	-64.0253	87.5616	-24.364	-25.0388	76.5984	-41.7321	-39.4682	66.1152	-60.4213	-52.9884	105.966	-27.1304	-9.86089	99.3775	-42.7354	-23.8188	95.3975	-57.8579	-39.269	114.887	14.7016	-0.408471	130.049	31.4589	19.0327	96.6364	38.2478	3.64398	
443	3.69167	78.2545	57.8021	23.0339	58.4454	50.4662	3.31361	39.7095	36.3195	-13.5498	26.4041	18.6286	-25.3962	56.6884	10.5161	-31.8148	41.6656	-8.3291	-46.9808	23.5504	-22.6344	-60.9521	64.4575	-7.51372	-36.3268	47.0587	-25.9949	-49.3961	31.0774	-42.1701	-62.5885	80.0853	-20.852	-24.2655	66.057	-35.0247	-39.8053	51.1582	-48.6529	-52.7398	97.0271	-26.8184	-9.99577	84.5399	-36.76	-22.4233	75.2325	-52.9929	-36.9774	116.562	11.634	2.38302	132.535	25.7999	17.4677	104.024	42.0442	3.64719	
444	3.7	88.096	69.751	23.2884	67.3916	64.4134	2.30326	47.6621	54.4935	-14.6539	32.6228	42.1494	-25.4168	55.7126	19.1626	-35.1987	36.2397	10.5491	-50.8623	18.2511	-0.498416	-62.7196	60.5853	1.7085	-36.9113	40.391	-10.2169	-50.7317	18.1577	-22.0811	-66.3931	71.9766	-13.2744	-25.824	58.3078	-22.8018	-37.0108	36.5074	-38.3891	-53.29	88.8967	-20.5548	-4.51216	73.1608	-31.3415	-22.2236	59.3142	-43.809	-36.5456	112.259	13.7452	-0.561054	132.717	27.3559	21.9006	109.873	46.7595	4.52191	
445	3.70833	98.6978	77.4818	24.1859	77.7786	77.8454	0.088433	57.5877	67.7707	-19.5356	40.4695	62.2023	-30.0302	58.7099	34.8845	-36.9166	40.53	32.024	-49.5464	22.2214	20.9667	-63.034	59.4668	15.2714	-37.5322	39.6126	8.83543	-50.3371	14.1346	-3.95712	-64.9771	67.4097	2.19811	-24.8714	52.4303	-10.7361	-35.6412	31.8886	-16.4476	-50.2235	81.028	-10.343	-6.49688	64.6751	-18.5767	-22.3068	49.7344	-28.6273	-35.6183	113.516	17.1642	4.44073	132.195	23.6505	22.3141	117.714	51.4242	6.63799	
446	3.71667	108.8	77.0208	23.3922	91.2227	88.2026	1.54904	68.5049	81.7259	-23.0124	53.6913	73.6067	-30.9984	66.7013	49.1825	-35.5625	43.0354	41.7467	-52.6958	26.441	39.1763	-64.1214	61.105	27.0219	-38.7574	42.2243	25.8071	-49.941	13.1964	22.2983	-66.2366	64.2266	12.1865	-25.3828	49.359	5.29924	-35.4165	26.3837	0.736652	-48.521	73.9922	-3.14154	-7.2059	56.9827	-8.49613	-20.308	39.6219	-14.7068	-35.7387	114.621	20.5914	6.1875	134.156	24.0885	23.8696	123.494	55.1402	6.78801	
